<svg xmlns="http://www.w3.org/2000/svg" viewBox="0 0 128 128" class="u-h-full icon-arrow-uturn-backward">
  <path
    d="M111.187 83.542a33.5 33.5 0 00-4.206-16.954 29.044 29.044 0 00-12.174-11.467q-7.968-4.127-19.2-4.127H43.528l-16.04.679 1.254 2.612 12.278-10.45 13.427-13.113a4.338 4.338 0 001.045-1.463 4.785 4.785 0 00.366-1.933 4.811 4.811 0 00-1.332-3.474A4.669 4.669 0 0051 22.467a5.038 5.038 0 00-3.6 1.515L18.711 52.247a5 5 0 00-1.228 1.724 4.981 4.981 0 00-.392 1.933 5.11 5.11 0 00.392 1.985 4.525 4.525 0 001.228 1.672l28.683 28.213a4.881 4.881 0 003.6 1.62 4.669 4.669 0 003.527-1.385 4.878 4.878 0 001.332-3.527 4.835 4.835 0 00-.366-1.907 4.273 4.273 0 00-1.045-1.489L41.02 67.973l-12.278-10.4-1.254 2.56 16.04.731h32.6a30.576 30.576 0 0113.819 2.821 19.645 19.645 0 018.49 7.837 22.812 22.812 0 012.874 11.546A23.647 23.647 0 0198.438 94.8a20.2 20.2 0 01-8.49 8.1 29.432 29.432 0 01-13.819 2.952H64.688a4.824 4.824 0 00-5.016 4.911 4.824 4.824 0 005.016 4.911h11.65q11.076 0 18.861-3.971a27.779 27.779 0 0011.886-11.233 33.842 33.842 0 004.102-16.928z"
    fill="currentColor"></path>
</svg>